<svg width="52" height="49" fill="none" xmlns="http://www.w3.org/2000/svg"><g id="ic:outline-telegram"><path id="Vector" d="M25.805 4.004c-12.053 0-21.835 9.194-21.835 20.522 0 11.328 9.782 20.521 21.835 20.521 12.052 0 21.834-9.193 21.834-20.521 0-11.328-9.782-20.522-21.834-20.522zM35.936 17.96c-.328 3.242-1.747 11.123-2.467 14.755-.306 1.539-.917 2.052-1.485 2.114-1.267.102-2.227-.78-3.45-1.54-1.921-1.19-3.013-1.928-4.87-3.078-2.16-1.334-.763-2.072.481-3.263.328-.307 5.917-5.089 6.027-5.52a.385.385 0 00-.006-.197.404.404 0 00-.104-.172c-.13-.103-.305-.062-.458-.041-.197.04-3.253 1.95-9.214 5.725-.874.554-1.66.841-2.358.821-.787-.02-2.271-.41-3.385-.76-1.375-.41-2.445-.636-2.358-1.354.044-.37.59-.739 1.616-1.128 6.376-2.607 10.611-4.33 12.73-5.151 6.07-2.38 7.314-2.791 8.144-2.791.174 0 .59.04.851.246a.8.8 0 01.306.554c-.022.123.022.493 0 .78z" fill="#2697BE"/></g></svg>